<svg xmlns="http://www.w3.org/2000/svg" xmlns:xlink="http://www.w3.org/1999/xlink" width="375" height="812" viewBox="0 0 375 812">
  <defs>
    <clipPath id="clip-Account_Screen">
      <rect width="375" height="812"/>
    </clipPath>
  </defs>
  <g id="Account_Screen" data-name="Account Screen" clip-path="url(#clip-Account_Screen)">
    <rect width="375" height="812" fill="#fff"/>
    <g id="iOS">
      <g id="Status_Bar" data-name="Status Bar" transform="translate(1)">
        <g id="Battery" transform="translate(336 17)">
          <g id="Border" transform="translate(0 0.333)" fill="none" stroke="#000" stroke-miterlimit="10" stroke-width="1" opacity="0.35">
            <rect width="22" height="11.333" rx="2.667" stroke="none"/>
            <rect x="0.5" y="0.5" width="21" height="10.333" rx="2.167" fill="none"/>
          </g>
          <path id="Cap" d="M0,0V4A2.17,2.17,0,0,0,1.328,2,2.17,2.17,0,0,0,0,0" transform="translate(23 4)" opacity="0.4"/>
          <rect id="Capacity" width="18" height="7.333" rx="1.333" transform="translate(2 2.333)"/>
        </g>
        <path id="Wifi" d="M7.637,10.966a.313.313,0,0,1-.221-.093l-2-2.016a.313.313,0,0,1,.01-.456,3.421,3.421,0,0,1,4.419,0,.311.311,0,0,1,.1.226.315.315,0,0,1-.094.23l-2,2.016A.308.308,0,0,1,7.637,10.966Zm3.508-3.538a.312.312,0,0,1-.214-.085,4.9,4.9,0,0,0-6.585,0,.312.312,0,0,1-.214.085.308.308,0,0,1-.22-.091L2.758,6.17a.322.322,0,0,1,0-.459,7.158,7.158,0,0,1,9.752,0,.322.322,0,0,1,.1.229.326.326,0,0,1-.094.23L11.364,7.337A.309.309,0,0,1,11.145,7.428ZM13.8,4.743a.3.3,0,0,1-.214-.087,8.64,8.64,0,0,0-11.907,0,.3.3,0,0,1-.214.087.308.308,0,0,1-.22-.091L.094,3.486a.322.322,0,0,1,0-.456,10.9,10.9,0,0,1,15.08,0,.325.325,0,0,1,.1.228.319.319,0,0,1-.094.229L14.023,4.652A.307.307,0,0,1,13.8,4.743Z" transform="translate(315.694 17.331)"/>
        <path id="Cellular_Connection" data-name="Cellular Connection" d="M16,10.667H15a1,1,0,0,1-1-1V1a1,1,0,0,1,1-1h1a1,1,0,0,1,1,1V9.667A1,1,0,0,1,16,10.667Zm-4.667,0h-1a1,1,0,0,1-1-1V3.334a1,1,0,0,1,1-1h1a1,1,0,0,1,1,1V9.667A1,1,0,0,1,11.334,10.667Zm-4.667,0h-1a1,1,0,0,1-1-1v-4a1,1,0,0,1,1-1h1a1,1,0,0,1,1,1v4A1,1,0,0,1,6.666,10.667ZM2,10.667H1a1,1,0,0,1-1-1v-2a1,1,0,0,1,1-1H2a1,1,0,0,1,1,1v2A1,1,0,0,1,2,10.667Z" transform="translate(293.667 17.667)"/>
        <g id="Time_Style" data-name="Time Style" transform="translate(21 9)">
          <text id="_Time" data-name="↳ Time" transform="translate(0 5.33)" font-size="15" font-family="SFProText-Semibold, SF Pro Text" font-weight="600" letter-spacing="0em"><tspan x="10.893" y="14">9:41</tspan></text>
        </g>
      </g>
      <g id="Home_Indicator" data-name="Home Indicator" transform="translate(0 778)">
        <rect id="Home_Indicator-2" data-name="Home Indicator" width="134" height="5" rx="2.5" transform="translate(121 20)"/>
      </g>
    </g>
    <g id="Create_Account_Button" data-name="Create Account Button" transform="translate(-11.75 -32)">
      <rect id="Rectangle_5" data-name="Rectangle 5" width="172.5" height="50" rx="25" transform="translate(113 715)" fill="#5ba8c6"/>
      <text id="Create_Account" data-name="Create Account" transform="translate(199.25 746)" fill="#fff" font-size="16" font-family="SofiaPro-Medium, Sofia Pro" font-weight="500" letter-spacing="-0.004em"><tspan x="-55.748" y="0">Create Account</tspan></text>
    </g>
    <g id="Name_Entry" data-name="Name Entry" transform="translate(8.003 -21)">
      <line id="Line_5" data-name="Line 5" x2="300.497" transform="translate(30.5 368.546)" fill="none" stroke="#707070" stroke-width="1" opacity="0.1"/>
      <text id="John_Doe" data-name="John Doe" transform="translate(30.997 350.979)" font-size="15" font-family="SofiaPro-Regular, Sofia Pro"><tspan x="0" y="0">John Doe</tspan></text>
      <text id="NAME" transform="translate(29.997 330.722)" fill="#c9c8c8" font-size="13" font-family="SofiaPro-Medium, Sofia Pro" font-weight="500"><tspan x="0" y="0">NAME</tspan></text>
    </g>
    <g id="Email_Entry" data-name="Email Entry" transform="translate(7.003 63)">
      <line id="Line_5-2" data-name="Line 5" x2="301.497" transform="translate(30.5 368.546)" fill="none" stroke="#707070" stroke-width="1" opacity="0.1"/>
      <text id="your_email.com" data-name="your@email.com" transform="translate(29.997 352.979)" font-size="15" font-family="SofiaPro-Regular, Sofia Pro"><tspan x="0" y="0">your@email.com</tspan></text>
      <text id="EMAIL" transform="translate(29.997 330.722)" fill="#c9c8c8" font-size="13" font-family="SofiaPro-Medium, Sofia Pro" font-weight="500"><tspan x="0" y="0">EMAIL</tspan></text>
    </g>
    <g id="Password_Entry" data-name="Password Entry" transform="translate(8.003 147)">
      <line id="Line_5-3" data-name="Line 5" x2="300.497" transform="translate(30.5 368.546)" fill="none" stroke="#707070" stroke-width="1" opacity="0.1"/>
      <text id="_········" data-name="········" transform="translate(30.997 356.979)" font-size="20" font-family="SofiaPro-Regular, Sofia Pro"><tspan x="0" y="0">········</tspan></text>
      <text id="Password" transform="translate(29.997 330.722)" fill="#c9c8c8" font-size="13" font-family="SofiaPro-Medium, Sofia Pro" font-weight="500"><tspan x="0" y="0">Password</tspan></text>
    </g>
    <g id="Info_to_user" data-name="Info to user">
      <text id="We_will_send_you_a_verification_email." data-name="We will send you a verification email." transform="translate(65 214)" font-size="15" font-family="SofiaPro-Light, Sofia Pro" font-weight="300"><tspan x="0" y="0">We will send you a verification email.</tspan></text>
      <text id="Hi_We_want_to_know_about_you." data-name="Hi! We want to 
know about you." transform="translate(188 168)" font-size="20" font-family="SofiaPro-Medium, Sofia Pro" font-weight="500"><tspan x="-67.329" y="0">Hi! We want to </tspan><tspan x="-74.355" y="20">know about you.</tspan></text>
    </g>
  </g>
</svg>
